<svg width="20" height="20" viewBox="0 0 20 20" fill="none" xmlns="http://www.w3.org/2000/svg">
<path d="M6.50002 1.66666H13.5C16.1667 1.66666 18.3334 3.83333 18.3334 6.5V13.5C18.3334 14.7819 17.8241 16.0113 16.9177 16.9177C16.0113 17.8241 14.7819 18.3333 13.5 18.3333H6.50002C3.83335 18.3333 1.66669 16.1667 1.66669 13.5V6.5C1.66669 5.21812 2.17591 3.98874 3.08234 3.08231C3.98876 2.17589 5.21814 1.66666 6.50002 1.66666ZM6.33335 3.33333C5.5377 3.33333 4.77464 3.6494 4.21203 4.21201C3.64942 4.77462 3.33335 5.53768 3.33335 6.33333V13.6667C3.33335 15.325 4.67502 16.6667 6.33335 16.6667H13.6667C14.4623 16.6667 15.2254 16.3506 15.788 15.788C16.3506 15.2254 16.6667 14.4623 16.6667 13.6667V6.33333C16.6667 4.675 15.325 3.33333 13.6667 3.33333H6.33335ZM14.375 4.58333C14.6513 4.58333 14.9162 4.69308 15.1116 4.88843C15.3069 5.08378 15.4167 5.34873 15.4167 5.625C15.4167 5.90126 15.3069 6.16622 15.1116 6.36157C14.9162 6.55692 14.6513 6.66666 14.375 6.66666C14.0988 6.66666 13.8338 6.55692 13.6384 6.36157C13.4431 6.16622 13.3334 5.90126 13.3334 5.625C13.3334 5.34873 13.4431 5.08378 13.6384 4.88843C13.8338 4.69308 14.0988 4.58333 14.375 4.58333ZM10 5.83333C11.1051 5.83333 12.1649 6.27232 12.9463 7.05372C13.7277 7.83512 14.1667 8.89493 14.1667 10C14.1667 11.1051 13.7277 12.1649 12.9463 12.9463C12.1649 13.7277 11.1051 14.1667 10 14.1667C8.89495 14.1667 7.83514 13.7277 7.05374 12.9463C6.27234 12.1649 5.83335 11.1051 5.83335 10C5.83335 8.89493 6.27234 7.83512 7.05374 7.05372C7.83514 6.27232 8.89495 5.83333 10 5.83333ZM10 7.5C9.33698 7.5 8.70109 7.76339 8.23225 8.23223C7.76341 8.70107 7.50002 9.33696 7.50002 10C7.50002 10.663 7.76341 11.2989 8.23225 11.7678C8.70109 12.2366 9.33698 12.5 10 12.5C10.6631 12.5 11.2989 12.2366 11.7678 11.7678C12.2366 11.2989 12.5 10.663 12.5 10C12.5 9.33696 12.2366 8.70107 11.7678 8.23223C11.2989 7.76339 10.6631 7.5 10 7.5Z" fill="#103410"/>
</svg>
